<mxfile host="65bd71144e" scale="5" border="0">
    <diagram id="I8Ss-5zuqxxBhnRVNnkU" name="Page-1">
        <mxGraphModel dx="3110" dy="2231" grid="1" gridSize="10" guides="1" tooltips="1" connect="1" arrows="1" fold="1" page="1" pageScale="1" pageWidth="850" pageHeight="1100" math="0" shadow="0">
            <root>
                <mxCell id="0"/>
                <mxCell id="1" parent="0"/>
                <mxCell id="5" style="edgeStyle=none;html=1;fontSize=20;strokeWidth=4;fillColor=#f5f5f5;strokeColor=#666666;" edge="1" parent="1" source="3" target="19">
                    <mxGeometry relative="1" as="geometry"/>
                </mxCell>
                <mxCell id="3" value="&lt;font style=&quot;font-size: 20px;&quot;&gt;push&lt;/font&gt;" style="strokeWidth=4;html=1;shape=mxgraph.flowchart.start_1;whiteSpace=wrap;fontStyle=1;fillColor=#d5e8d4;strokeColor=#82b366;" vertex="1" parent="1">
                    <mxGeometry x="1030" y="210" width="140" height="70" as="geometry"/>
                </mxCell>
                <mxCell id="7" style="edgeStyle=none;html=1;fontSize=20;strokeWidth=4;fillColor=#f5f5f5;strokeColor=#666666;" edge="1" parent="1" source="19" target="20">
                    <mxGeometry relative="1" as="geometry"/>
                </mxCell>
                <mxCell id="4" value="Знайти мінімальний потік" style="rounded=1;whiteSpace=wrap;html=1;absoluteArcSize=1;arcSize=14;strokeWidth=4;fontSize=20;fillColor=#f5f5f5;fontColor=#333333;strokeColor=#666666;" vertex="1" parent="1">
                    <mxGeometry x="1000" y="330" width="200" height="70" as="geometry"/>
                </mxCell>
                <mxCell id="11" style="edgeStyle=none;html=1;exitX=0.5;exitY=1;exitDx=0;exitDy=0;entryX=0.5;entryY=0;entryDx=0;entryDy=0;entryPerimeter=0;fontSize=20;strokeWidth=4;fillColor=#f5f5f5;strokeColor=#666666;" edge="1" parent="1" source="6" target="10">
                    <mxGeometry relative="1" as="geometry"/>
                </mxCell>
                <mxCell id="6" value="Змінити значння потоку та надлишкового потоку" style="rounded=1;whiteSpace=wrap;html=1;absoluteArcSize=1;arcSize=14;strokeWidth=4;fontSize=20;fillColor=#f5f5f5;fontColor=#333333;strokeColor=#666666;" vertex="1" parent="1">
                    <mxGeometry x="975" y="450" width="250" height="130" as="geometry"/>
                </mxCell>
                <mxCell id="17" style="edgeStyle=elbowEdgeStyle;elbow=vertical;html=1;exitX=0.5;exitY=1;exitDx=0;exitDy=0;entryX=0.5;entryY=0;entryDx=0;entryDy=0;entryPerimeter=0;fontSize=20;strokeWidth=4;fillColor=#f5f5f5;strokeColor=#666666;" edge="1" parent="1" target="14">
                    <mxGeometry relative="1" as="geometry">
                        <mxPoint x="1315" y="950" as="sourcePoint"/>
                    </mxGeometry>
                </mxCell>
                <mxCell id="8" value="Додати вершину у чергу" style="rounded=1;whiteSpace=wrap;html=1;absoluteArcSize=1;arcSize=14;strokeWidth=4;fontSize=20;fontStyle=1;fillColor=#f5f5f5;fontColor=#333333;strokeColor=#666666;" vertex="1" parent="1">
                    <mxGeometry x="1190" y="840" width="250" height="130" as="geometry"/>
                </mxCell>
                <mxCell id="13" style="edgeStyle=elbowEdgeStyle;html=1;exitX=1;exitY=0.5;exitDx=0;exitDy=0;exitPerimeter=0;fontSize=20;elbow=vertical;strokeWidth=4;fillColor=#f5f5f5;strokeColor=#666666;" edge="1" parent="1" source="10" target="8">
                    <mxGeometry relative="1" as="geometry">
                        <mxPoint x="1320" y="820" as="targetPoint"/>
                        <Array as="points">
                            <mxPoint x="1310" y="700"/>
                        </Array>
                    </mxGeometry>
                </mxCell>
                <mxCell id="45" style="edgeStyle=orthogonalEdgeStyle;html=1;exitX=0;exitY=0.5;exitDx=0;exitDy=0;exitPerimeter=0;entryX=0.5;entryY=0;entryDx=0;entryDy=0;entryPerimeter=0;strokeWidth=4;fontSize=13;fillColor=#f5f5f5;strokeColor=#666666;" edge="1" parent="1" source="10" target="14">
                    <mxGeometry relative="1" as="geometry">
                        <Array as="points">
                            <mxPoint x="920" y="700"/>
                            <mxPoint x="920" y="1010"/>
                            <mxPoint x="1100" y="1010"/>
                        </Array>
                    </mxGeometry>
                </mxCell>
                <mxCell id="10" value="Значення &lt;br&gt;потоку ==&lt;br&gt;надлишку" style="strokeWidth=4;html=1;shape=mxgraph.flowchart.decision;whiteSpace=wrap;fontSize=20;fontStyle=1;fillColor=#f5f5f5;fontColor=#333333;strokeColor=#666666;" vertex="1" parent="1">
                    <mxGeometry x="970" y="640" width="260" height="120" as="geometry"/>
                </mxCell>
                <mxCell id="14" value="Кінець" style="strokeWidth=4;html=1;shape=mxgraph.flowchart.start_1;whiteSpace=wrap;fontSize=20;fontStyle=1;fillColor=#d5e8d4;strokeColor=#82b366;" vertex="1" parent="1">
                    <mxGeometry x="1050" y="1070" width="100" height="60" as="geometry"/>
                </mxCell>
                <mxCell id="26" style="edgeStyle=elbowEdgeStyle;elbow=vertical;html=1;exitX=0.5;exitY=1;exitDx=0;exitDy=0;exitPerimeter=0;entryX=0.5;entryY=0;entryDx=0;entryDy=0;fontSize=20;fillColor=#f5f5f5;strokeColor=#666666;strokeWidth=4;fontStyle=1" edge="1" parent="1" source="18" target="25">
                    <mxGeometry relative="1" as="geometry"/>
                </mxCell>
                <mxCell id="18" value="&lt;span&gt;relable&lt;/span&gt;" style="strokeWidth=4;html=1;shape=mxgraph.flowchart.start_1;whiteSpace=wrap;fontSize=20;fillColor=#dae8fc;strokeColor=#6c8ebf;fontStyle=1;" vertex="1" parent="1">
                    <mxGeometry x="1590" y="125" width="160" height="85" as="geometry"/>
                </mxCell>
                <mxCell id="19" value="Знайти мінімальний потік" style="rounded=1;whiteSpace=wrap;html=1;absoluteArcSize=1;arcSize=14;strokeWidth=4;fontSize=20;fontStyle=1;fillColor=#f5f5f5;fontColor=#333333;strokeColor=#666666;" vertex="1" parent="1">
                    <mxGeometry x="1000" y="330" width="200" height="70" as="geometry"/>
                </mxCell>
                <mxCell id="20" value="Змінити значння потоку та надлишкового потоку" style="rounded=1;whiteSpace=wrap;html=1;absoluteArcSize=1;arcSize=14;strokeWidth=4;fontSize=20;fontStyle=1;fillColor=#f5f5f5;fontColor=#333333;strokeColor=#666666;" vertex="1" parent="1">
                    <mxGeometry x="975" y="450" width="250" height="130" as="geometry"/>
                </mxCell>
                <mxCell id="28" style="edgeStyle=elbowEdgeStyle;elbow=vertical;html=1;exitX=0.5;exitY=1;exitDx=0;exitDy=0;exitPerimeter=0;entryX=0.5;entryY=0;entryDx=0;entryDy=0;entryPerimeter=0;fontSize=20;fillColor=#f5f5f5;strokeColor=#666666;strokeWidth=4;fontStyle=1" edge="1" parent="1" source="21" target="24">
                    <mxGeometry relative="1" as="geometry"/>
                </mxCell>
                <mxCell id="21" value="Для кожного вузла" style="strokeWidth=4;html=1;shape=mxgraph.flowchart.loop_limit;whiteSpace=wrap;fontSize=20;fillColor=#f5f5f5;fontColor=#333333;strokeColor=#666666;fontStyle=1" vertex="1" parent="1">
                    <mxGeometry x="1595" y="330" width="150" height="90" as="geometry"/>
                </mxCell>
                <mxCell id="35" style="edgeStyle=elbowEdgeStyle;elbow=vertical;html=1;exitX=0.5;exitY=0;exitDx=0;exitDy=0;exitPerimeter=0;strokeWidth=4;fontSize=20;fillColor=#f5f5f5;strokeColor=#666666;fontStyle=1" edge="1" parent="1" source="23" target="34">
                    <mxGeometry relative="1" as="geometry"/>
                </mxCell>
                <mxCell id="23" value="" style="strokeWidth=4;html=1;shape=mxgraph.flowchart.loop_limit;whiteSpace=wrap;fontSize=20;rotation=-180;fillColor=#f5f5f5;fontColor=#333333;strokeColor=#666666;fontStyle=1" vertex="1" parent="1">
                    <mxGeometry x="1620" y="760" width="100" height="60" as="geometry"/>
                </mxCell>
                <mxCell id="43" style="edgeStyle=orthogonalEdgeStyle;html=1;exitX=0;exitY=0.5;exitDx=0;exitDy=0;exitPerimeter=0;entryX=0.5;entryY=1;entryDx=0;entryDy=0;entryPerimeter=0;strokeWidth=4;fontSize=13;fillColor=#f5f5f5;strokeColor=#666666;fontStyle=1" edge="1" parent="1" source="24" target="23">
                    <mxGeometry relative="1" as="geometry">
                        <Array as="points">
                            <mxPoint x="1500" y="525"/>
                            <mxPoint x="1500" y="710"/>
                            <mxPoint x="1670" y="710"/>
                        </Array>
                    </mxGeometry>
                </mxCell>
                <mxCell id="44" style="edgeStyle=orthogonalEdgeStyle;html=1;exitX=1;exitY=0.5;exitDx=0;exitDy=0;exitPerimeter=0;entryX=0.5;entryY=0;entryDx=0;entryDy=0;strokeWidth=4;fontSize=13;fillColor=#f5f5f5;strokeColor=#666666;fontStyle=1" edge="1" parent="1" source="24" target="30">
                    <mxGeometry relative="1" as="geometry"/>
                </mxCell>
                <mxCell id="24" value="Значення &lt;br&gt;місткості &lt;br&gt;== потоку" style="strokeWidth=4;html=1;shape=mxgraph.flowchart.decision;whiteSpace=wrap;fontSize=20;fillColor=#f5f5f5;fontColor=#333333;strokeColor=#666666;fontStyle=1" vertex="1" parent="1">
                    <mxGeometry x="1545" y="450" width="250" height="150" as="geometry"/>
                </mxCell>
                <mxCell id="27" style="edgeStyle=elbowEdgeStyle;elbow=vertical;html=1;exitX=0.5;exitY=1;exitDx=0;exitDy=0;entryX=0.5;entryY=0;entryDx=0;entryDy=0;entryPerimeter=0;fontSize=20;fillColor=#f5f5f5;strokeColor=#666666;strokeWidth=4;fontStyle=1" edge="1" parent="1" source="25" target="21">
                    <mxGeometry relative="1" as="geometry"/>
                </mxCell>
                <mxCell id="25" value="d = inf" style="shape=parallelogram;html=1;strokeWidth=4;perimeter=parallelogramPerimeter;whiteSpace=wrap;rounded=1;arcSize=12;size=0.23;fontSize=20;fillColor=#f5f5f5;fontColor=#333333;strokeColor=#666666;fontStyle=1" vertex="1" parent="1">
                    <mxGeometry x="1620" y="240" width="100" height="60" as="geometry"/>
                </mxCell>
                <mxCell id="38" style="edgeStyle=elbowEdgeStyle;elbow=vertical;html=1;exitX=0.5;exitY=1;exitDx=0;exitDy=0;entryX=0.5;entryY=1;entryDx=0;entryDy=0;entryPerimeter=0;strokeWidth=4;fontSize=20;fillColor=#f5f5f5;strokeColor=#666666;fontStyle=1" edge="1" parent="1" source="30" target="23">
                    <mxGeometry relative="1" as="geometry"/>
                </mxCell>
                <mxCell id="30" value="d = мінімальне між d та висотою вузла" style="rounded=1;whiteSpace=wrap;html=1;absoluteArcSize=1;arcSize=14;strokeWidth=4;fontSize=20;fillColor=#f5f5f5;fontColor=#333333;strokeColor=#666666;fontStyle=1" vertex="1" parent="1">
                    <mxGeometry x="1780" y="560" width="215" height="100" as="geometry"/>
                </mxCell>
                <mxCell id="32" value="Знайти мінімальний потік" style="rounded=1;whiteSpace=wrap;html=1;absoluteArcSize=1;arcSize=14;strokeWidth=4;fontSize=20;fontStyle=1;fillColor=#f5f5f5;fontColor=#333333;strokeColor=#666666;" vertex="1" parent="1">
                    <mxGeometry x="1000" y="330" width="200" height="70" as="geometry"/>
                </mxCell>
                <mxCell id="33" value="Змінити значння потоку та надлишкового потоку" style="rounded=1;whiteSpace=wrap;html=1;absoluteArcSize=1;arcSize=14;strokeWidth=4;fontSize=20;fontStyle=1;fillColor=#f5f5f5;fontColor=#333333;strokeColor=#666666;" vertex="1" parent="1">
                    <mxGeometry x="975" y="450" width="250" height="130" as="geometry"/>
                </mxCell>
                <mxCell id="36" style="edgeStyle=elbowEdgeStyle;elbow=vertical;html=1;exitX=1;exitY=0.5;exitDx=0;exitDy=0;exitPerimeter=0;strokeWidth=4;fontSize=20;entryX=0.5;entryY=0;entryDx=0;entryDy=0;fillColor=#f5f5f5;strokeColor=#666666;fontStyle=1" edge="1" parent="1" source="34" target="37">
                    <mxGeometry relative="1" as="geometry">
                        <mxPoint x="1800.0000000000005" y="1060" as="targetPoint"/>
                        <Array as="points">
                            <mxPoint x="1770" y="930"/>
                        </Array>
                    </mxGeometry>
                </mxCell>
                <mxCell id="40" style="edgeStyle=orthogonalEdgeStyle;html=1;exitX=0;exitY=0.5;exitDx=0;exitDy=0;exitPerimeter=0;strokeWidth=4;fontSize=20;fillColor=#f5f5f5;strokeColor=#666666;fontStyle=1" edge="1" parent="1" source="34" target="42">
                    <mxGeometry relative="1" as="geometry">
                        <mxPoint x="1540" y="1170" as="targetPoint"/>
                        <Array as="points">
                            <mxPoint x="1540" y="930"/>
                            <mxPoint x="1540" y="1190"/>
                            <mxPoint x="1670" y="1190"/>
                        </Array>
                    </mxGeometry>
                </mxCell>
                <mxCell id="34" value="d &amp;lt; inf" style="strokeWidth=4;html=1;shape=mxgraph.flowchart.decision;whiteSpace=wrap;fontSize=20;fillColor=#f5f5f5;fontColor=#333333;strokeColor=#666666;fontStyle=1" vertex="1" parent="1">
                    <mxGeometry x="1575" y="880" width="190" height="100" as="geometry"/>
                </mxCell>
                <mxCell id="41" style="edgeStyle=orthogonalEdgeStyle;html=1;exitX=0.5;exitY=1;exitDx=0;exitDy=0;strokeWidth=4;fontSize=20;fillColor=#f5f5f5;strokeColor=#666666;fontStyle=1" edge="1" parent="1" source="37" target="42">
                    <mxGeometry relative="1" as="geometry">
                        <mxPoint x="1680.0000000000005" y="1240" as="targetPoint"/>
                        <Array as="points">
                            <mxPoint x="1800" y="1190"/>
                            <mxPoint x="1670" y="1190"/>
                        </Array>
                    </mxGeometry>
                </mxCell>
                <mxCell id="37" value="Висота вузла = d+1&amp;nbsp;" style="rounded=1;whiteSpace=wrap;html=1;absoluteArcSize=1;arcSize=14;strokeWidth=4;fontSize=20;fillColor=#f5f5f5;fontColor=#333333;strokeColor=#666666;fontStyle=1" vertex="1" parent="1">
                    <mxGeometry x="1720" y="1010" width="160" height="100" as="geometry"/>
                </mxCell>
                <mxCell id="42" value="&lt;span style=&quot;color: rgb(51, 51, 51);&quot;&gt;Кінець&lt;/span&gt;" style="strokeWidth=4;html=1;shape=mxgraph.flowchart.start_1;whiteSpace=wrap;fontSize=20;fillColor=#dae8fc;strokeColor=#6c8ebf;fontStyle=1;" vertex="1" parent="1">
                    <mxGeometry x="1620" y="1230" width="100" height="60" as="geometry"/>
                </mxCell>
                <mxCell id="56" style="edgeStyle=orthogonalEdgeStyle;html=1;strokeWidth=5;fontSize=13;fillColor=#f5f5f5;strokeColor=#666666;" edge="1" parent="1" source="52" target="54">
                    <mxGeometry relative="1" as="geometry"/>
                </mxCell>
                <mxCell id="52" value="pushRelable" style="strokeWidth=4;html=1;shape=mxgraph.flowchart.start_1;whiteSpace=wrap;fontSize=20;fillColor=#fff2cc;strokeColor=#d6b656;fontStyle=1;" vertex="1" parent="1">
                    <mxGeometry x="1010" y="1260" width="160" height="85" as="geometry"/>
                </mxCell>
                <mxCell id="59" style="edgeStyle=orthogonalEdgeStyle;html=1;exitX=0.5;exitY=1;exitDx=0;exitDy=0;entryX=0.5;entryY=0;entryDx=0;entryDy=0;strokeWidth=5;fontSize=13;fillColor=#f5f5f5;strokeColor=#666666;" edge="1" parent="1" source="54" target="58">
                    <mxGeometry relative="1" as="geometry"/>
                </mxCell>
                <mxCell id="54" value="Висота джерела =&lt;br&gt;&amp;nbsp;кількості всіх вершин&lt;br&gt;Виток джерела = inf" style="shape=parallelogram;html=1;strokeWidth=4;perimeter=parallelogramPerimeter;whiteSpace=wrap;rounded=1;arcSize=12;size=0.23;fontSize=20;fillColor=#f5f5f5;fontColor=#333333;strokeColor=#666666;fontStyle=1" vertex="1" parent="1">
                    <mxGeometry x="927.5" y="1410" width="325" height="130" as="geometry"/>
                </mxCell>
                <mxCell id="62" style="edgeStyle=orthogonalEdgeStyle;html=1;exitX=0.5;exitY=1;exitDx=0;exitDy=0;entryX=0.5;entryY=0;entryDx=0;entryDy=0;entryPerimeter=0;strokeWidth=5;fontSize=13;fillColor=#f5f5f5;strokeColor=#666666;" edge="1" parent="1" source="58" target="61">
                    <mxGeometry relative="1" as="geometry"/>
                </mxCell>
                <mxCell id="58" value="Викликати &lt;font color=&quot;#688f51&quot;&gt;push&lt;/font&gt;&lt;font color=&quot;#82b366&quot;&gt; &lt;/font&gt;для кожної вершини" style="rounded=1;whiteSpace=wrap;html=1;absoluteArcSize=1;arcSize=14;strokeWidth=4;fontSize=20;fontStyle=1;fillColor=#f5f5f5;fontColor=#333333;strokeColor=#666666;" vertex="1" parent="1">
                    <mxGeometry x="965" y="1610" width="250" height="130" as="geometry"/>
                </mxCell>
                <mxCell id="67" style="edgeStyle=orthogonalEdgeStyle;html=1;exitX=0.5;exitY=1;exitDx=0;exitDy=0;exitPerimeter=0;strokeWidth=5;fontSize=13;fillColor=#f5f5f5;strokeColor=#666666;" edge="1" parent="1" source="61" target="65">
                    <mxGeometry relative="1" as="geometry"/>
                </mxCell>
                <mxCell id="61" value="Черга не пуста" style="strokeWidth=4;html=1;shape=mxgraph.flowchart.loop_limit;whiteSpace=wrap;fontSize=20;fillColor=#f5f5f5;fontColor=#333333;strokeColor=#666666;fontStyle=1" vertex="1" parent="1">
                    <mxGeometry x="1015" y="1800" width="150" height="90" as="geometry"/>
                </mxCell>
                <mxCell id="71" style="edgeStyle=orthogonalEdgeStyle;html=1;exitX=0.5;exitY=0;exitDx=0;exitDy=0;exitPerimeter=0;entryX=0.5;entryY=0;entryDx=0;entryDy=0;strokeWidth=5;fontSize=13;fillColor=#f5f5f5;strokeColor=#666666;" edge="1" parent="1" source="63" target="70">
                    <mxGeometry relative="1" as="geometry"/>
                </mxCell>
                <mxCell id="63" value="" style="strokeWidth=4;html=1;shape=mxgraph.flowchart.loop_limit;whiteSpace=wrap;fontSize=20;rotation=-180;fillColor=#f5f5f5;fontColor=#333333;strokeColor=#666666;fontStyle=1" vertex="1" parent="1">
                    <mxGeometry x="1040" y="2090" width="100" height="60" as="geometry"/>
                </mxCell>
                <mxCell id="68" style="edgeStyle=orthogonalEdgeStyle;html=1;exitX=0.5;exitY=1;exitDx=0;exitDy=0;entryX=0.5;entryY=1;entryDx=0;entryDy=0;entryPerimeter=0;strokeWidth=5;fontSize=13;fillColor=#f5f5f5;strokeColor=#666666;" edge="1" parent="1" source="65" target="63">
                    <mxGeometry relative="1" as="geometry"/>
                </mxCell>
                <mxCell id="65" value="Виклик &lt;font color=&quot;#b85450&quot;&gt;discharge&lt;/font&gt;&lt;font color=&quot;#ffffff&quot;&gt; &lt;/font&gt;для вершини черги" style="rounded=1;whiteSpace=wrap;html=1;absoluteArcSize=1;arcSize=14;strokeWidth=4;fontSize=20;fillColor=#f5f5f5;fontColor=#333333;strokeColor=#666666;fontStyle=1" vertex="1" parent="1">
                    <mxGeometry x="1010" y="1940" width="160" height="100" as="geometry"/>
                </mxCell>
                <mxCell id="75" style="edgeStyle=orthogonalEdgeStyle;html=1;exitX=0.5;exitY=1;exitDx=0;exitDy=0;strokeWidth=5;fontSize=13;fillColor=#f5f5f5;strokeColor=#666666;" edge="1" parent="1" source="70" target="76">
                    <mxGeometry relative="1" as="geometry">
                        <mxPoint x="1090" y="2360" as="targetPoint"/>
                    </mxGeometry>
                </mxCell>
                <mxCell id="70" value="Просумувати та повернути потік" style="rounded=1;whiteSpace=wrap;html=1;absoluteArcSize=1;arcSize=14;strokeWidth=4;fontSize=20;fillColor=#f5f5f5;fontColor=#333333;strokeColor=#666666;fontStyle=1" vertex="1" parent="1">
                    <mxGeometry x="1000" y="2210" width="180" height="100" as="geometry"/>
                </mxCell>
                <mxCell id="76" value="&lt;span style=&quot;color: rgb(51, 51, 51);&quot;&gt;Кінець&lt;/span&gt;" style="strokeWidth=4;html=1;shape=mxgraph.flowchart.start_1;whiteSpace=wrap;fontSize=20;fillColor=#fff2cc;strokeColor=#d6b656;fontStyle=1;" vertex="1" parent="1">
                    <mxGeometry x="1040" y="2370" width="100" height="60" as="geometry"/>
                </mxCell>
                <mxCell id="97" style="edgeStyle=orthogonalEdgeStyle;html=1;exitX=0.5;exitY=1;exitDx=0;exitDy=0;exitPerimeter=0;entryX=0.5;entryY=0;entryDx=0;entryDy=0;entryPerimeter=0;strokeWidth=5;fontSize=13;fontColor=#b85450;fillColor=#f5f5f5;strokeColor=#666666;" edge="1" parent="1" source="78" target="80">
                    <mxGeometry relative="1" as="geometry"/>
                </mxCell>
                <mxCell id="78" value="discharge" style="strokeWidth=4;html=1;shape=mxgraph.flowchart.start_1;whiteSpace=wrap;fontSize=20;fillColor=#f8cecc;strokeColor=#b85450;fontStyle=1;" vertex="1" parent="1">
                    <mxGeometry x="1540" y="1340" width="160" height="85" as="geometry"/>
                </mxCell>
                <mxCell id="79" style="edgeStyle=elbowEdgeStyle;elbow=vertical;html=1;exitX=0.5;exitY=1;exitDx=0;exitDy=0;exitPerimeter=0;entryX=0.5;entryY=0;entryDx=0;entryDy=0;entryPerimeter=0;fontSize=20;fillColor=#f5f5f5;strokeColor=#666666;strokeWidth=4;fontStyle=1" edge="1" parent="1" source="80" target="103">
                    <mxGeometry relative="1" as="geometry">
                        <mxPoint x="1620.0000000000005" y="1665" as="targetPoint"/>
                    </mxGeometry>
                </mxCell>
                <mxCell id="80" value="Виток вузла&lt;br&gt;&amp;nbsp;&amp;gt; 0" style="strokeWidth=4;html=1;shape=mxgraph.flowchart.loop_limit;whiteSpace=wrap;fontSize=20;fillColor=#f5f5f5;fontColor=#333333;strokeColor=#666666;fontStyle=1" vertex="1" parent="1">
                    <mxGeometry x="1545" y="1545" width="150" height="90" as="geometry"/>
                </mxCell>
                <mxCell id="104" style="edgeStyle=orthogonalEdgeStyle;html=1;exitX=1;exitY=0.5;exitDx=0;exitDy=0;exitPerimeter=0;strokeWidth=5;fontSize=13;fontColor=#b85450;entryX=0.5;entryY=0;entryDx=0;entryDy=0;entryPerimeter=0;fillColor=#f5f5f5;strokeColor=#666666;" edge="1" parent="1" source="103" target="105">
                    <mxGeometry relative="1" as="geometry">
                        <mxPoint x="1880.0000000000005" y="1920" as="targetPoint"/>
                    </mxGeometry>
                </mxCell>
                <mxCell id="110" style="edgeStyle=orthogonalEdgeStyle;html=1;exitX=0;exitY=0.5;exitDx=0;exitDy=0;exitPerimeter=0;strokeWidth=5;fontSize=13;fontColor=#b85450;fillColor=#f5f5f5;strokeColor=#666666;" edge="1" parent="1" source="103" target="111">
                    <mxGeometry relative="1" as="geometry">
                        <mxPoint x="1340" y="2080" as="targetPoint"/>
                    </mxGeometry>
                </mxCell>
                <mxCell id="103" value="відвіданий вузол&lt;br&gt;&amp;nbsp;даного вузла має значення&lt;br&gt;&amp;nbsp;&amp;lt; кількості вузлів" style="strokeWidth=4;html=1;shape=mxgraph.flowchart.decision;whiteSpace=wrap;fontSize=20;fillColor=#f5f5f5;fontColor=#333333;strokeColor=#666666;fontStyle=1" vertex="1" parent="1">
                    <mxGeometry x="1472.5" y="1680" width="295" height="170" as="geometry"/>
                </mxCell>
                <mxCell id="106" style="edgeStyle=orthogonalEdgeStyle;html=1;exitX=1;exitY=0.5;exitDx=0;exitDy=0;exitPerimeter=0;strokeWidth=5;fontSize=13;fontColor=#b85450;entryX=0.5;entryY=0;entryDx=0;entryDy=0;fillColor=#f5f5f5;strokeColor=#666666;" edge="1" parent="1" source="105" target="107">
                    <mxGeometry relative="1" as="geometry">
                        <mxPoint x="2060.0000000000005" y="2170" as="targetPoint"/>
                    </mxGeometry>
                </mxCell>
                <mxCell id="109" style="edgeStyle=orthogonalEdgeStyle;html=1;exitX=0;exitY=0.5;exitDx=0;exitDy=0;exitPerimeter=0;strokeWidth=5;fontSize=13;fontColor=#b85450;fillColor=#f5f5f5;strokeColor=#666666;" edge="1" parent="1" source="105" target="108">
                    <mxGeometry relative="1" as="geometry"/>
                </mxCell>
                <mxCell id="105" value="Значення&amp;nbsp;&lt;br style=&quot;border-color: var(--border-color);&quot;&gt;місткості&lt;br style=&quot;border-color: var(--border-color);&quot;&gt;== потоку" style="strokeWidth=4;html=1;shape=mxgraph.flowchart.decision;whiteSpace=wrap;fontSize=20;fillColor=#f5f5f5;fontColor=#333333;strokeColor=#666666;fontStyle=1" vertex="1" parent="1">
                    <mxGeometry x="1730" y="1960" width="230" height="130" as="geometry"/>
                </mxCell>
                <mxCell id="115" style="edgeStyle=orthogonalEdgeStyle;html=1;exitX=0.5;exitY=1;exitDx=0;exitDy=0;entryX=0.5;entryY=0;entryDx=0;entryDy=0;entryPerimeter=0;strokeWidth=5;fontSize=13;fontColor=#000000;fillColor=#f5f5f5;strokeColor=#666666;" edge="1" parent="1" source="107" target="112">
                    <mxGeometry relative="1" as="geometry">
                        <Array as="points">
                            <mxPoint x="2025" y="2450"/>
                            <mxPoint x="1610" y="2450"/>
                        </Array>
                    </mxGeometry>
                </mxCell>
                <mxCell id="107" value="Викликати &lt;font color=&quot;#688f51&quot;&gt;push&lt;/font&gt;&lt;font color=&quot;#82b366&quot;&gt; &lt;/font&gt;для ребра із вузла у відвіданий" style="rounded=1;whiteSpace=wrap;html=1;absoluteArcSize=1;arcSize=14;strokeWidth=4;fontSize=20;fontStyle=1;fillColor=#f5f5f5;fontColor=#333333;strokeColor=#666666;" vertex="1" parent="1">
                    <mxGeometry x="1900" y="2170" width="250" height="130" as="geometry"/>
                </mxCell>
                <mxCell id="114" style="edgeStyle=orthogonalEdgeStyle;html=1;exitX=0.5;exitY=1;exitDx=0;exitDy=0;entryX=0.5;entryY=0;entryDx=0;entryDy=0;entryPerimeter=0;strokeWidth=5;fontSize=13;fontColor=#000000;fillColor=#f5f5f5;strokeColor=#666666;" edge="1" parent="1" source="108" target="112">
                    <mxGeometry relative="1" as="geometry">
                        <Array as="points">
                            <mxPoint x="1651" y="2450"/>
                            <mxPoint x="1610" y="2450"/>
                        </Array>
                    </mxGeometry>
                </mxCell>
                <mxCell id="108" value="Відвіданий += 1" style="rounded=1;whiteSpace=wrap;html=1;absoluteArcSize=1;arcSize=14;strokeWidth=4;fontSize=20;fontStyle=1;fillColor=#f5f5f5;fontColor=#333333;strokeColor=#666666;" vertex="1" parent="1">
                    <mxGeometry x="1560" y="2180" width="182.5" height="110" as="geometry"/>
                </mxCell>
                <mxCell id="113" style="edgeStyle=orthogonalEdgeStyle;html=1;exitX=0.5;exitY=1;exitDx=0;exitDy=0;entryX=0.5;entryY=0;entryDx=0;entryDy=0;entryPerimeter=0;strokeWidth=5;fontSize=13;fontColor=#000000;fillColor=#f5f5f5;strokeColor=#666666;" edge="1" parent="1" source="111" target="112">
                    <mxGeometry relative="1" as="geometry">
                        <Array as="points">
                            <mxPoint x="1378" y="2450"/>
                            <mxPoint x="1610" y="2450"/>
                        </Array>
                    </mxGeometry>
                </mxCell>
                <mxCell id="111" value="Викликати &lt;font color=&quot;#6c8ebf&quot;&gt;relable &lt;/font&gt;&lt;font color=&quot;#000000&quot;&gt;для даного вузла &lt;br&gt;відвіданий = 0&lt;/font&gt;" style="rounded=1;whiteSpace=wrap;html=1;absoluteArcSize=1;arcSize=14;strokeWidth=4;fontSize=20;fontStyle=1;fillColor=#f5f5f5;fontColor=#333333;strokeColor=#666666;" vertex="1" parent="1">
                    <mxGeometry x="1252.5" y="2060" width="250" height="130" as="geometry"/>
                </mxCell>
                <mxCell id="112" value="&lt;span style=&quot;color: rgb(51, 51, 51);&quot;&gt;Кінець&lt;/span&gt;" style="strokeWidth=4;html=1;shape=mxgraph.flowchart.start_1;whiteSpace=wrap;fontSize=20;fillColor=#f8cecc;strokeColor=#b85450;fontStyle=1;" vertex="1" parent="1">
                    <mxGeometry x="1560" y="2510" width="100" height="60" as="geometry"/>
                </mxCell>
            </root>
        </mxGraphModel>
    </diagram>
</mxfile>